<svg width="89" height="88" viewBox="0 0 89 88" fill="none" xmlns="http://www.w3.org/2000/svg">
<g filter="url(#filter0_d_0_56)">
<rect x="20.5" y="4" width="48" height="48" rx="24" fill="white"/>
<g clip-path="url(#clip0_0_56)">
<path d="M41.3342 28C41.3342 25.975 42.9754 24.333 45.0004 24.333C47.0255 24.333 48.6675 25.975 48.6675 28C48.6675 30.025 47.0255 31.667 45.0004 31.667C42.9754 31.667 41.3342 30.025 41.3342 28ZM39.3518 28C39.3518 31.1196 41.8807 33.6484 45.0004 33.6484C48.1202 33.6484 50.649 31.1196 50.649 28C50.649 24.8804 48.1202 22.3516 45.0004 22.3516C41.8807 22.3516 39.3518 24.8804 39.3518 28ZM49.5526 22.1277C49.5523 22.8567 50.1431 23.4479 50.8721 23.4482C51.6012 23.4485 52.1924 22.8577 52.1927 22.1287C52.193 21.3997 51.6022 20.8085 50.8732 20.8082C50.1445 20.8085 49.5532 21.399 49.5526 22.1277ZM40.5563 36.9537C39.4838 36.9049 38.9008 36.7263 38.5134 36.5753C37.9998 36.3754 37.6334 36.1373 37.2481 35.7525C36.8628 35.3678 36.6244 35.0017 36.4253 34.4882C36.2743 34.101 36.0956 33.5179 36.0469 32.4454C35.9935 31.2859 35.9829 30.9376 35.9829 28.0001C35.9829 25.0626 35.9944 24.7152 36.0469 23.5548C36.0957 22.4823 36.2757 21.9004 36.4253 21.512C36.6252 20.9985 36.8634 20.632 37.2481 20.2468C37.6329 19.8615 37.999 19.623 38.5134 19.424C38.9007 19.273 39.4838 19.0943 40.5563 19.0456C41.7158 18.9922 42.0641 18.9816 45.0004 18.9816C47.9368 18.9816 48.2854 18.9931 49.4459 19.0456C50.5184 19.0944 51.1004 19.2744 51.4888 19.424C52.0024 19.623 52.3688 19.862 52.7541 20.2468C53.1394 20.6315 53.377 20.9985 53.5769 21.512C53.7279 21.8992 53.9066 22.4823 53.9553 23.5548C54.0087 24.7152 54.0193 25.0626 54.0193 28.0001C54.0193 30.9376 54.0087 31.285 53.9553 32.4454C53.9065 33.5179 53.727 34.1008 53.5769 34.4882C53.377 35.0017 53.1388 35.3682 52.7541 35.7525C52.3693 36.1369 52.0024 36.3754 51.4888 36.5753C51.1015 36.7263 50.5184 36.905 49.4459 36.9537C48.2864 37.0071 47.9381 37.0177 45.0004 37.0177C42.0628 37.0177 41.7154 37.0071 40.5563 36.9537ZM40.4652 17.0666C39.2941 17.1199 38.4939 17.3056 37.7951 17.5775C37.0713 17.8584 36.4586 18.2351 35.8464 18.8463C35.2342 19.4576 34.8584 20.0712 34.5776 20.7949C34.3056 21.4942 34.1199 22.2939 34.0666 23.4649C34.0124 24.6378 34 25.0128 34 28C34 30.9872 34.0124 31.3622 34.0666 32.5351C34.1199 33.7062 34.3056 34.5058 34.5776 35.2051C34.8584 35.9284 35.2342 36.5427 35.8464 37.1537C36.4586 37.7647 37.0713 38.1409 37.7951 38.4225C38.4952 38.6944 39.2941 38.8801 40.4652 38.9334C41.6387 38.9867 42.0131 39 45.0004 39C47.9878 39 48.3628 38.9876 49.5357 38.9334C50.7069 38.8801 51.5065 38.6944 52.2058 38.4225C52.9291 38.1409 53.5422 37.7649 54.1545 37.1537C54.7667 36.5424 55.1417 35.9284 55.4233 35.2051C55.6952 34.5058 55.8818 33.7061 55.9343 32.5351C55.9876 31.3613 56 30.9872 56 28C56 25.0128 55.9876 24.6378 55.9343 23.4649C55.8809 22.2938 55.6952 21.4937 55.4233 20.7949C55.1417 20.0716 54.7658 19.4585 54.1545 18.8463C53.5432 18.2341 52.9291 17.8584 52.2067 17.5775C51.5065 17.3056 50.7068 17.1191 49.5366 17.0666C48.3637 17.0133 47.9887 17 45.0013 17C42.014 17 41.6387 17.0124 40.4652 17.0666Z" fill="#464646"/>
</g>
</g>
<defs>
<filter id="filter0_d_0_56" x="0.5" y="0" width="88" height="88" filterUnits="userSpaceOnUse" color-interpolation-filters="sRGB">
<feFlood flood-opacity="0" result="BackgroundImageFix"/>
<feColorMatrix in="SourceAlpha" type="matrix" values="0 0 0 0 0 0 0 0 0 0 0 0 0 0 0 0 0 0 127 0" result="hardAlpha"/>
<feMorphology radius="10" operator="erode" in="SourceAlpha" result="effect1_dropShadow_0_56"/>
<feOffset dy="16"/>
<feGaussianBlur stdDeviation="15"/>
<feComposite in2="hardAlpha" operator="out"/>
<feColorMatrix type="matrix" values="0 0 0 0 0 0 0 0 0 0 0 0 0 0 0 0 0 0 0.08 0"/>
<feBlend mode="normal" in2="BackgroundImageFix" result="effect1_dropShadow_0_56"/>
<feBlend mode="normal" in="SourceGraphic" in2="effect1_dropShadow_0_56" result="shape"/>
</filter>
<clipPath id="clip0_0_56">
<rect width="22" height="22" fill="white" transform="translate(34 17)"/>
</clipPath>
</defs>
</svg>
