<svg width="89" height="88" viewBox="0 0 89 88" fill="none" xmlns="http://www.w3.org/2000/svg">
<g filter="url(#filter0_d_0_61)">
<rect x="20.5" y="4" width="48" height="48" rx="24" fill="white"/>
<g clip-path="url(#clip0_0_61)">
<path d="M33 19.6136C33 18.856 33.2675 18.231 33.8024 17.7386C34.3373 17.2462 35.0327 17 35.8885 17C36.7291 17 37.4092 17.2424 37.9288 17.7273C38.4637 18.2273 38.7312 18.8788 38.7312 19.6818C38.7312 20.4091 38.4714 21.0151 37.9517 21.5C37.4168 22 36.7138 22.25 35.8427 22.25H35.8197C34.9792 22.25 34.2991 22 33.7794 21.5C33.2598 21 33 20.3712 33 19.6136ZM33.298 39.5V24.3182H38.3873V39.5H33.298ZM41.207 39.5H46.2963V31.0227C46.2963 30.4924 46.3575 30.0833 46.4797 29.7954C46.6937 29.2803 47.0185 28.8447 47.454 28.4886C47.8896 28.1326 48.436 27.9545 49.0931 27.9545C50.8049 27.9545 51.6607 29.0985 51.6607 31.3863V39.5H56.75V30.7954C56.75 28.553 56.2151 26.8523 55.1453 25.6932C54.0754 24.5341 52.6618 23.9545 50.9042 23.9545C48.9327 23.9545 47.3967 24.7954 46.2963 26.4773V26.5227H46.2734L46.2963 26.4773V24.3182H41.207C41.2376 24.803 41.2529 26.3106 41.2529 28.8409C41.2529 31.3712 41.2376 34.9242 41.207 39.5Z" fill="#464646"/>
</g>
</g>
<defs>
<filter id="filter0_d_0_61" x="0.5" y="0" width="88" height="88" filterUnits="userSpaceOnUse" color-interpolation-filters="sRGB">
<feFlood flood-opacity="0" result="BackgroundImageFix"/>
<feColorMatrix in="SourceAlpha" type="matrix" values="0 0 0 0 0 0 0 0 0 0 0 0 0 0 0 0 0 0 127 0" result="hardAlpha"/>
<feMorphology radius="10" operator="erode" in="SourceAlpha" result="effect1_dropShadow_0_61"/>
<feOffset dy="16"/>
<feGaussianBlur stdDeviation="15"/>
<feComposite in2="hardAlpha" operator="out"/>
<feColorMatrix type="matrix" values="0 0 0 0 0 0 0 0 0 0 0 0 0 0 0 0 0 0 0.08 0"/>
<feBlend mode="normal" in2="BackgroundImageFix" result="effect1_dropShadow_0_61"/>
<feBlend mode="normal" in="SourceGraphic" in2="effect1_dropShadow_0_61" result="shape"/>
</filter>
<clipPath id="clip0_0_61">
<rect width="23.75" height="22.5" fill="white" transform="translate(33 17)"/>
</clipPath>
</defs>
</svg>
