<svg width="89" height="88" viewBox="0 0 89 88" fill="none" xmlns="http://www.w3.org/2000/svg">
<g filter="url(#filter0_d_0_50)">
<rect x="20.5" y="4" width="48" height="48" rx="24" fill="white"/>
<g clip-path="url(#clip0_0_50)">
<path d="M31.5 28.5C31.5 26.2333 32.0584 24.1417 33.175 22.225C34.2917 20.3083 35.8084 18.7917 37.725 17.675C39.6417 16.5583 41.7333 16 44 16C46.2667 16 48.3584 16.5583 50.275 17.675C52.1917 18.7917 53.7084 20.3083 54.825 22.225C55.9417 24.1417 56.5 26.2333 56.5 28.5C56.5 30.7667 55.9417 32.8583 54.825 34.775C53.7084 36.6917 52.1917 38.2083 50.275 39.325C48.3584 40.4417 46.2667 41 44 41C41.7333 41 39.6417 40.4417 37.725 39.325C35.8084 38.2083 34.2917 36.6917 33.175 34.775C32.0584 32.8583 31.5 30.7667 31.5 28.5ZM33.575 28.5C33.575 31.1 34.45 33.3917 36.2 35.375C37 33.8083 38.2667 32.3167 40 30.9C41.7333 29.4833 43.425 28.5917 45.075 28.225C44.825 27.6417 44.5834 27.1167 44.35 26.65C41.4833 27.5667 38.3833 28.025 35.05 28.025C34.4 28.025 33.9167 28.0167 33.6 28C33.6 28.0667 33.5958 28.15 33.5875 28.25C33.5792 28.35 33.575 28.4333 33.575 28.5ZM33.9 25.925C34.2667 25.9583 34.8084 25.975 35.525 25.975C38.3084 25.975 40.95 25.6 43.45 24.85C42.1834 22.6 40.7917 20.725 39.275 19.225C37.9584 19.8917 36.8292 20.8167 35.8875 22C34.9459 23.1833 34.2833 24.4917 33.9 25.925ZM37.625 36.725C39.5084 38.1917 41.6334 38.925 44 38.925C45.2333 38.925 46.4584 38.6917 47.675 38.225C47.3417 35.375 46.6917 32.6167 45.725 29.95C44.1917 30.2833 42.6459 31.125 41.0875 32.475C39.5292 33.825 38.375 35.2417 37.625 36.725ZM41.45 18.425C42.9167 19.9417 44.275 21.8333 45.525 24.1C47.7917 23.15 49.5 21.9417 50.65 20.475C48.7167 18.875 46.5 18.075 44 18.075C43.15 18.075 42.3 18.1917 41.45 18.425ZM46.425 25.875C46.675 26.4083 46.9584 27.0833 47.275 27.9C48.5084 27.7833 49.85 27.725 51.3 27.725C52.3334 27.725 53.3584 27.75 54.375 27.8C54.2417 25.5333 53.425 23.5167 51.925 21.75C50.8417 23.3667 49.0084 24.7417 46.425 25.875ZM47.9 29.65C48.75 32.1167 49.325 34.65 49.625 37.25C50.9417 36.4 52.0167 35.3083 52.85 33.975C53.6833 32.6417 54.1833 31.2 54.35 29.65C53.1334 29.5667 52.025 29.525 51.025 29.525C50.1084 29.525 49.0667 29.5667 47.9 29.65Z" fill="#464646"/>
</g>
</g>
<defs>
<filter id="filter0_d_0_50" x="0.5" y="0" width="88" height="88" filterUnits="userSpaceOnUse" color-interpolation-filters="sRGB">
<feFlood flood-opacity="0" result="BackgroundImageFix"/>
<feColorMatrix in="SourceAlpha" type="matrix" values="0 0 0 0 0 0 0 0 0 0 0 0 0 0 0 0 0 0 127 0" result="hardAlpha"/>
<feMorphology radius="10" operator="erode" in="SourceAlpha" result="effect1_dropShadow_0_50"/>
<feOffset dy="16"/>
<feGaussianBlur stdDeviation="15"/>
<feComposite in2="hardAlpha" operator="out"/>
<feColorMatrix type="matrix" values="0 0 0 0 0 0 0 0 0 0 0 0 0 0 0 0 0 0 0.08 0"/>
<feBlend mode="normal" in2="BackgroundImageFix" result="effect1_dropShadow_0_50"/>
<feBlend mode="normal" in="SourceGraphic" in2="effect1_dropShadow_0_50" result="shape"/>
</filter>
<clipPath id="clip0_0_50">
<rect width="25" height="25" fill="white" transform="translate(31.5 16)"/>
</clipPath>
</defs>
</svg>
